<svg xmlns="http://www.w3.org/2000/svg" width="148.44" height="220" viewBox="0 0 148.44 220"><path fill="#F0F0F0" d="M263.12,151.07c-1.2-21.51-13.08-48.13-37.35-62.56A76.38,76.38,0,0,0,189,78.07a76.38,76.38,0,0,0-36.77,10.44c-24.27,14.43-36.15,41.05-37.35,62.56-2.15,38.75,30.61,74.88,51.21,109.35,7.75,13,16.52,28.7,20.92,36.14a2.07,2.07,0,0,0,4,0c4.4-7.44,13.17-23.16,20.92-36.14C232.51,226,265.27,189.82,263.12,151.07ZM189,179.1a32.47,32.47,0,1,1,32.47-32.47A32.47,32.47,0,0,1,189,179.1Z" transform="translate(-114.78 -78.07)"/></svg>