<?xml version="1.0" encoding="UTF-8" standalone="no"?>
<!-- Generator: Adobe Illustrator 12.0.0, SVG Export Plug-In . SVG Version: 6.00 Build 51448)  -->

<svg
   xmlns:dc="http://purl.org/dc/elements/1.1/"
   xmlns:cc="http://creativecommons.org/ns#"
   xmlns:rdf="http://www.w3.org/1999/02/22-rdf-syntax-ns#"
   xmlns:svg="http://www.w3.org/2000/svg"
   xmlns="http://www.w3.org/2000/svg"
   xmlns:sodipodi="http://sodipodi.sourceforge.net/DTD/sodipodi-0.dtd"
   xmlns:inkscape="http://www.inkscape.org/namespaces/inkscape"
   version="1.1"
   id="Layer_1"
   width="376.771"
   height="238.44501"
   viewBox="0 0 376.77098 238.44501"
   overflow="visible"
   enable-background="new 0 0 444.196 260.538"
   xml:space="preserve"
   inkscape:version="0.91 r13725"
   sodipodi:docname="sports-soccer.svg"
   style="overflow:visible"><metadata
     id="metadata229"><rdf:RDF><cc:Work
         rdf:about=""><dc:format>image/svg+xml</dc:format><dc:type
           rdf:resource="http://purl.org/dc/dcmitype/StillImage" /><dc:title></dc:title></cc:Work></rdf:RDF></metadata><defs
     id="defs227" /><sodipodi:namedview
     pagecolor="#ffffff"
     bordercolor="#666666"
     borderopacity="1"
     objecttolerance="10"
     gridtolerance="10"
     guidetolerance="10"
     inkscape:pageopacity="0"
     inkscape:pageshadow="2"
     inkscape:window-width="1016"
     inkscape:window-height="715"
     id="namedview225"
     showgrid="false"
     inkscape:zoom="1.4142136"
     inkscape:cx="195.38101"
     inkscape:cy="131.55629"
     inkscape:window-x="0"
     inkscape:window-y="25"
     inkscape:window-maximized="0"
     inkscape:current-layer="Layer_1"
     fit-margin-top="0"
     fit-margin-left="0"
     fit-margin-right="0"
     fit-margin-bottom="0" /><line
     x1="11.202"
     y1="1"
     x2="10.902"
     y2="237.44501"
     id="line5"
     style="fill:none" /><line
     x1="10.410999"
     y1="1"
     x2="365.26898"
     y2="1"
     id="line7"
     style="fill:none;stroke:#ffffff;stroke-width:2" /><line
     x1="365.26898"
     y1="0.048000336"
     x2="365.26898"
     y2="238.22101"
     id="line9"
     style="fill:none;stroke:#ffffff;stroke-width:2" /><line
     x1="365.26898"
     y1="237.14499"
     x2="10.902"
     y2="237.44501"
     id="line11"
     style="fill:none;stroke:#ffffff;stroke-width:2" /><line
     x1="11.202"
     y1="34.306"
     x2="81.115005"
     y2="34.005997"
     id="line13"
     style="fill:none;stroke:#ffffff;stroke-width:2" /><line
     x1="81.115005"
     y1="33.264"
     x2="81.714996"
     y2="205.515"
     id="line15"
     style="fill:none;stroke:#ffffff;stroke-width:2" /><line
     x1="81.714996"
     y1="204.439"
     x2="11.202"
     y2="204.439"
     id="line17"
     style="fill:none;stroke:#ffffff;stroke-width:2" /><line
     x1="10.902"
     y1="157.93001"
     x2="34.606003"
     y2="157.63"
     id="line19"
     style="fill:none;stroke:#ffffff;stroke-width:2" /><line
     x1="11.202"
     y1="80.815002"
     x2="34.606003"
     y2="80.514999"
     id="line21"
     style="fill:none;stroke:#ffffff;stroke-width:2" /><line
     x1="34.606003"
     y1="79.687004"
     x2="34.606003"
     y2="158.77901"
     id="line23"
     style="fill:none;stroke:#ffffff;stroke-width:2" /><line
     x1="10.902"
     y1="104.22"
     x2="0.16600037"
     y2="104.22"
     id="line25"
     style="fill:none;stroke:#ffffff;stroke-width:2" /><line
     x1="1"
     y1="104.22"
     x2="1"
     y2="135.12601"
     id="line27"
     style="fill:none;stroke:#ffffff;stroke-width:2" /><line
     x1="0.36100006"
     y1="135.12601"
     x2="10.602001"
     y2="135.425"
     id="line29"
     style="fill:none;stroke:#ffffff;stroke-width:2" /><line
     x1="188.23601"
     y1="1"
     x2="188.535"
     y2="238.04501"
     id="line31"
     style="fill:none;stroke:#ffffff;stroke-width:2" /><line
     x1="294.28598"
     y1="34.306"
     x2="365.26898"
     y2="34.306"
     id="line33"
     style="fill:none;stroke:#ffffff;stroke-width:2" /><line
     x1="295.35599"
     y1="34.306"
     x2="295.95599"
     y2="204.439"
     id="line35"
     style="fill:none;stroke:#ffffff;stroke-width:2" /><line
     x1="294.98999"
     y1="204.439"
     x2="364.96899"
     y2="204.439"
     id="line37"
     style="fill:none;stroke:#ffffff;stroke-width:2" /><line
     x1="341.14398"
     y1="80.815002"
     x2="365.26898"
     y2="80.815002"
     id="line39"
     style="fill:none;stroke:#ffffff;stroke-width:2" /><line
     x1="342.16498"
     y1="80.815002"
     x2="342.76398"
     y2="158.987"
     id="line41"
     style="fill:none;stroke:#ffffff;stroke-width:2" /><line
     x1="342.76398"
     y1="157.93001"
     x2="365.26898"
     y2="157.93001"
     id="line43"
     style="fill:none;stroke:#ffffff;stroke-width:2" /><line
     x1="365.569"
     y1="103.62"
     x2="375.771"
     y2="103.62"
     id="line45"
     style="fill:none;stroke:#ffffff;stroke-width:2" /><line
     x1="375.771"
     y1="102.651"
     x2="375.771"
     y2="136.311"
     id="line47"
     style="fill:none;stroke:#ffffff;stroke-width:2" /><line
     x1="375.77298"
     y1="135.29001"
     x2="365.56699"
     y2="135.25999"
     id="line49"
     style="fill:none;stroke:#ffffff;stroke-width:2" /><ellipse
     cx="188.686"
     cy="119.823"
     rx="40.358002"
     ry="38.407001"
     id="ellipse51"
     style="fill:none;stroke:#ffffff;stroke-width:1.5" /><circle
     cx="188.466"
     cy="119.82201"
     r="2.7"
     id="circle53"
     style="fill:#ffffff" /><circle
     cx="319.06"
     cy="119.522"
     r="2.7"
     id="circle55"
     style="fill:#ffffff" /><circle
     cx="58.108997"
     cy="119.224"
     r="2.7"
     id="circle57"
     style="fill:#ffffff" /><path
     d="m 80.889001,89.405 c 9.95,6.755 16.429,17.773 16.429,30.217 0,12.319 -6.349,23.239 -16.129,30.011"
     id="path59"
     inkscape:connector-curvature="0"
     style="fill:none;stroke:#ffffff;stroke-width:1.5" /><path
     d="m 295.134,89.324 c -9.791,6.983 -16.012,18.149 -15.724,30.59 0.286,12.315 6.886,23.085 16.821,29.628"
     id="path61"
     inkscape:connector-curvature="0"
     style="fill:none;stroke:#ffffff;stroke-width:1.5" /><path
     d="m 18.159001,0.9889998 c 0.094,0.438 0.144,0.894 0.144,1.361 0,3.397 -2.62,6.151 -5.851,6.151 -0.443,0 -0.874,-0.052 -1.289,-0.15"
     id="path63"
     inkscape:connector-curvature="0"
     style="fill:none;stroke:#ffffff;stroke-width:1.5" /><path
     d="m 365.389,8.5829998 c -0.445,0.053 -0.902,0.061 -1.369,0.018 -3.383,-0.313 -5.883,-3.175 -5.584,-6.393 0.041,-0.441 0.131,-0.866 0.268,-1.27"
     id="path65"
     inkscape:connector-curvature="0"
     style="fill:none;stroke:#ffffff;stroke-width:1.5" /><path
     d="m 358.179,237.16 c -0.051,-0.445 -0.054,-0.903 -0.007,-1.369 0.343,-3.38 3.226,-5.855 6.44,-5.53 0.441,0.045 0.865,0.141 1.268,0.279"
     id="path67"
     inkscape:connector-curvature="0"
     style="fill:none;stroke:#ffffff;stroke-width:1.5" /><path
     d="m 11.331001,230.051 c 0.444,-0.059 0.902,-0.072 1.369,-0.034 3.387,0.274 5.92,3.107 5.659,6.328 -0.035,0.441 -0.121,0.867 -0.253,1.272"
     id="path69"
     inkscape:connector-curvature="0"
     style="fill:none;stroke:#ffffff;stroke-width:1.5" /><line
     x1="11.223"
     y1="0.88500023"
     x2="11.523003"
     y2="237.92999"
     id="line99"
     style="fill:none;stroke:#ffffff;stroke-width:2" /></svg>