<?xml version="1.0" encoding="UTF-8" standalone="no"?>
<!-- Generator: Adobe Illustrator 12.0.0, SVG Export Plug-In . SVG Version: 6.00 Build 51448)  -->

<svg
   xmlns:dc="http://purl.org/dc/elements/1.1/"
   xmlns:cc="http://creativecommons.org/ns#"
   xmlns:rdf="http://www.w3.org/1999/02/22-rdf-syntax-ns#"
   xmlns:svg="http://www.w3.org/2000/svg"
   xmlns="http://www.w3.org/2000/svg"
   xmlns:sodipodi="http://sodipodi.sourceforge.net/DTD/sodipodi-0.dtd"
   xmlns:inkscape="http://www.inkscape.org/namespaces/inkscape"
   version="1.1"
   id="Layer_1"
   width="238.44501"
   height="376.771"
   viewBox="0 0 238.445 376.771"
   overflow="visible"
   enable-background="new 0 0 444.196 260.538"
   xml:space="preserve"
   inkscape:version="0.91 r13725"
   sodipodi:docname="sports-soccer.svg"
   style="overflow:visible"><metadata
     id="metadata229"><rdf:RDF><cc:Work
         rdf:about=""><dc:format>image/svg+xml</dc:format><dc:type
           rdf:resource="http://purl.org/dc/dcmitype/StillImage" /><dc:title></dc:title></cc:Work></rdf:RDF></metadata><defs
     id="defs227" /><sodipodi:namedview
     pagecolor="#ffffff"
     bordercolor="#666666"
     borderopacity="1"
     objecttolerance="10"
     gridtolerance="10"
     guidetolerance="10"
     inkscape:pageopacity="0"
     inkscape:pageshadow="2"
     inkscape:window-width="1016"
     inkscape:window-height="715"
     id="namedview225"
     showgrid="false"
     inkscape:zoom="1"
     inkscape:cx="126.21801"
     inkscape:cy="171.99427"
     inkscape:window-x="0"
     inkscape:window-y="25"
     inkscape:window-maximized="0"
     inkscape:current-layer="Layer_1"
     fit-margin-top="0"
     fit-margin-left="0"
     fit-margin-right="0"
     fit-margin-bottom="0" /><g
     id="g3366"
     transform="matrix(0,1,-1,0,257.33701,-26.716999)"><line
       id="line5"
       y2="256.33701"
       x2="37.618999"
       y1="19.892"
       x1="37.918999"
       style="fill:none" /><line
       id="line7"
       y2="19.892"
       x2="391.98599"
       y1="19.892"
       x1="37.127998"
       style="fill:none;stroke:#ffffff;stroke-width:2" /><line
       id="line9"
       y2="257.11301"
       x2="391.98599"
       y1="18.940001"
       x1="391.98599"
       style="fill:none;stroke:#ffffff;stroke-width:2" /><line
       id="line11"
       y2="256.33701"
       x2="37.618999"
       y1="256.03699"
       x1="391.98599"
       style="fill:none;stroke:#ffffff;stroke-width:2" /><line
       id="line13"
       y2="52.897999"
       x2="107.832"
       y1="53.198002"
       x1="37.918999"
       style="fill:none;stroke:#ffffff;stroke-width:2" /><line
       id="line15"
       y2="224.407"
       x2="108.432"
       y1="52.155998"
       x1="107.832"
       style="fill:none;stroke:#ffffff;stroke-width:2" /><line
       id="line17"
       y2="223.33099"
       x2="37.918999"
       y1="223.33099"
       x1="108.432"
       style="fill:none;stroke:#ffffff;stroke-width:2" /><line
       id="line19"
       y2="176.522"
       x2="61.323002"
       y1="176.82201"
       x1="37.618999"
       style="fill:none;stroke:#ffffff;stroke-width:2" /><line
       id="line21"
       y2="99.406998"
       x2="61.323002"
       y1="99.707001"
       x1="37.918999"
       style="fill:none;stroke:#ffffff;stroke-width:2" /><line
       id="line23"
       y2="177.67101"
       x2="61.323002"
       y1="98.579002"
       x1="61.323002"
       style="fill:none;stroke:#ffffff;stroke-width:2" /><line
       id="line25"
       y2="123.112"
       x2="26.882999"
       y1="123.112"
       x1="37.618999"
       style="fill:none;stroke:#ffffff;stroke-width:2" /><line
       id="line27"
       y2="154.01801"
       x2="27.716999"
       y1="123.112"
       x1="27.716999"
       style="fill:none;stroke:#ffffff;stroke-width:2" /><line
       id="line29"
       y2="154.317"
       x2="37.319"
       y1="154.01801"
       x1="27.077999"
       style="fill:none;stroke:#ffffff;stroke-width:2" /><line
       id="line31"
       y2="256.93701"
       x2="215.252"
       y1="19.892"
       x1="214.953"
       style="fill:none;stroke:#ffffff;stroke-width:2" /><line
       id="line33"
       y2="53.198002"
       x2="391.98599"
       y1="53.198002"
       x1="321.00299"
       style="fill:none;stroke:#ffffff;stroke-width:2" /><line
       id="line35"
       y2="223.33099"
       x2="322.673"
       y1="53.198002"
       x1="322.073"
       style="fill:none;stroke:#ffffff;stroke-width:2" /><line
       id="line37"
       y2="223.33099"
       x2="391.686"
       y1="223.33099"
       x1="321.707"
       style="fill:none;stroke:#ffffff;stroke-width:2" /><line
       id="line39"
       y2="99.707001"
       x2="391.98599"
       y1="99.707001"
       x1="367.86099"
       style="fill:none;stroke:#ffffff;stroke-width:2" /><line
       id="line41"
       y2="177.879"
       x2="369.48099"
       y1="99.707001"
       x1="368.88199"
       style="fill:none;stroke:#ffffff;stroke-width:2" /><line
       id="line43"
       y2="176.82201"
       x2="391.98599"
       y1="176.82201"
       x1="369.48099"
       style="fill:none;stroke:#ffffff;stroke-width:2" /><line
       id="line45"
       y2="122.512"
       x2="402.48801"
       y1="122.512"
       x1="392.28601"
       style="fill:none;stroke:#ffffff;stroke-width:2" /><line
       id="line47"
       y2="155.203"
       x2="402.48801"
       y1="121.543"
       x1="402.48801"
       style="fill:none;stroke:#ffffff;stroke-width:2" /><line
       id="line49"
       y2="154.15199"
       x2="392.284"
       y1="154.18201"
       x1="402.48999"
       style="fill:none;stroke:#ffffff;stroke-width:2" /><ellipse
       id="ellipse51"
       ry="38.407001"
       rx="40.358002"
       cy="138.715"
       cx="215.403"
       style="fill:none;stroke:#ffffff;stroke-width:1.5" /><circle
       id="circle53"
       r="2.7"
       cy="138.714"
       cx="215.183"
       style="fill:#ffffff" /><circle
       id="circle55"
       r="2.7"
       cy="138.414"
       cx="345.77701"
       style="fill:#ffffff" /><circle
       id="circle57"
       r="2.7"
       cy="138.116"
       cx="84.825996"
       style="fill:#ffffff" /><path
       id="path59"
       d="m 107.606,108.297 c 9.95,6.755 16.429,17.773 16.429,30.217 0,12.319 -6.349,23.239 -16.129,30.011"
       inkscape:connector-curvature="0"
       style="fill:none;stroke:#ffffff;stroke-width:1.5" /><path
       id="path61"
       d="m 321.851,108.216 c -9.791,6.983 -16.012,18.149 -15.724,30.59 0.286,12.315 6.886,23.085 16.821,29.628"
       inkscape:connector-curvature="0"
       style="fill:none;stroke:#ffffff;stroke-width:1.5" /><path
       id="path63"
       d="m 44.876,19.881 c 0.094,0.438 0.144,0.894 0.144,1.361 0,3.397 -2.62,6.151 -5.851,6.151 -0.443,0 -0.874,-0.052 -1.289,-0.15"
       inkscape:connector-curvature="0"
       style="fill:none;stroke:#ffffff;stroke-width:1.5" /><path
       id="path65"
       d="m 392.106,27.475 c -0.445,0.053 -0.902,0.061 -1.369,0.018 -3.383,-0.313 -5.883,-3.175 -5.584,-6.393 0.041,-0.441 0.131,-0.866 0.268,-1.27"
       inkscape:connector-curvature="0"
       style="fill:none;stroke:#ffffff;stroke-width:1.5" /><path
       id="path67"
       d="m 384.896,256.052 c -0.051,-0.445 -0.054,-0.903 -0.007,-1.369 0.343,-3.38 3.226,-5.855 6.44,-5.53 0.441,0.045 0.865,0.141 1.268,0.279"
       inkscape:connector-curvature="0"
       style="fill:none;stroke:#ffffff;stroke-width:1.5" /><path
       id="path69"
       d="m 38.048,248.943 c 0.444,-0.059 0.902,-0.072 1.369,-0.034 3.387,0.274 5.92,3.107 5.659,6.328 -0.035,0.441 -0.121,0.867 -0.253,1.272"
       inkscape:connector-curvature="0"
       style="fill:none;stroke:#ffffff;stroke-width:1.5" /><line
       id="line99"
       y2="256.82199"
       x2="38.240002"
       y1="19.777"
       x1="37.939999"
       style="fill:none;stroke:#ffffff;stroke-width:2" /></g></svg>