<svg xmlns="http://www.w3.org/2000/svg" width="262" height="262" viewBox="0 0 262 262"><circle fill="#F0F0F0" cx="133" cy="130" r="34"/><path fill="#F0F0F0" d="M314,184H260.8A71.09,71.09,0,0,0,194,118.12V64a5,5,0,0,0-10,0v54.27a71.11,71.11,0,0,0-64.82,65.89A4.6,4.6,0,0,0,118,184H62a5,5,0,0,0,0,10h56a4.6,4.6,0,0,0,1.18-.16A71.09,71.09,0,0,0,184,259.73a2.48,2.48,0,0,0,0,.27v56a5,5,0,0,0,10,0V260s0-.08,0-.12A71.07,71.07,0,0,0,260.8,194H314a5,5,0,0,0,0-10ZM190,250a61,61,0,1,1,61-61A61.06,61.06,0,0,1,190,250Z" transform="translate(-57 -59)"/></svg>