<svg xmlns="http://www.w3.org/2000/svg" width="219.52" height="212.15" viewBox="0 0 219.52 212.15"><path fill="#606060" d="M196.63,208.42H149.48c-11.9,0-21.59-7.69-21.59-19.59s9.69-19.6,21.59-19.6H252.79l-9.44-12.89H149.48c-19,0-34.48,13.47-34.48,32.49s15.47,32.48,34.48,32.48h47.15c10,0,18.05,10.09,18.05,20a18.07,18.07,0,0,1-18.05,18H115.9a21.35,21.35,0,1,0-.37,12.89h81.1a31,31,0,0,0,30.94-30.94C227.57,224.29,213.69,208.42,196.63,208.42ZM95.36,274.25a9,9,0,1,1,9-9A9,9,0,0,1,95.36,274.25Z" transform="translate(-74 -74.46)"/><path fill="#606060" d="M261,168.3h.39l4.76-7.69c.55-.86,5.22-8.45,11.71-19,9.28-15.1,15.66-27.8,15.66-35a32.14,32.14,0,0,0-64.27,0c0,7.2,4.46,18.61,13.75,33.71,0,0,11,16.57,12.92,19.86C258.91,165.17,261,168.3,261,168.3Zm.39-51.55a12,12,0,1,1,12-12A12,12,0,0,1,261.39,116.75Z" transform="translate(-74 -74.46)"/></svg>